/vscmnt/brussel_pixiu_data/_data_brussel/112/vsc11236/PredSimResults/SUBJ11mtu3D/weighted-LRposFixed/expIG/worker_01.mot
version=1
nRows=11
nColumns=50
inDegrees=yes
endheader
                time	         pelvis_tilt	         pelvis_list	     pelvis_rotation	           pelvis_tx	           pelvis_ty	           pelvis_tz	       hip_flexion_r	     hip_adduction_r	      hip_rotation_r	        knee_angle_r	       ankle_angle_r	         mtp_angle_r	       hip_flexion_l	     hip_adduction_l	      hip_rotation_l	        knee_angle_l	       ankle_angle_l	         mtp_angle_l	    lumbar_extension	      lumbar_bending	     lumbar_rotation	 ercspn_r/activation	 intobl_r/activation	 extobl_r/activation	    abd_r/activation	    add_r/activation	hamstrings_r/activation	bifemsh_r/activation	glut_max_r/activation	iliopsoas_r/activation	rect_fem_r/activation	  vasti_r/activation	gastroc_r/activation	 soleus_r/activation	tib_ant_r/activation	 ercspn_l/activation	 intobl_l/activation	 extobl_l/activation	    abd_l/activation	    add_l/activation	hamstrings_l/activation	bifemsh_l/activation	glut_max_l/activation	iliopsoas_l/activation	rect_fem_l/activation	  vasti_l/activation	gastroc_l/activation	 soleus_l/activation	tib_ant_l/activation	
          0.68754823	         -6.32672595	          4.70882577	         -7.92429341	          0.75630306	          0.93687288	          0.01614457	        -12.77672397	         -5.33132111	          3.18523843	         -8.91969619	         11.46547968	         29.82922151	         32.07572407	          1.22314853	         -4.47992703	         -5.28505593	          5.36299378	          0.23345497	         -4.13415355	         -3.51829924	          2.67350862	          0.06640178	          0.01000032	          0.01000104	          0.04189557	          0.03059814	          0.02204472	          0.10924161	          0.03451897	          0.42939941	          0.01001236	          0.01322572	          0.30634422	          0.24444484	          0.01000008	          0.08203978	          0.11320144	          0.02199451	          0.01341649	          0.13117085	          0.04253393	          0.20735700	          0.05890246	          0.07732295	          0.01000361	          0.01000074	          0.02282408	          0.01000093	          0.29418577	
          0.70129920	         -6.42901822	          4.57222918	         -7.91876353	          0.77508487	          0.93499230	          0.01543735	        -12.81482248	         -5.26329853	          2.79849424	        -10.71465360	         10.73318575	         32.00140504	         31.89244378	          1.26715420	         -4.52771771	         -6.70765040	          4.96305275	          0.18801348	         -3.80610519	         -3.81979950	          2.87251434	          0.07977082	          0.01000019	          0.01000075	          0.03408411	          0.02827960	          0.02079496	          0.08887355	          0.02808289	          0.41028333	          0.01000420	          0.02163571	          0.25847850	          0.21746066	          0.01000006	          0.06674716	          0.09944088	          0.01789365	          0.04589612	          0.10671744	          0.05573160	          0.16869577	          0.08364955	          0.06290601	          0.01000078	          0.01000021	          0.01856890	          0.01229248	          0.32654235	
          0.71505016	         -6.50861417	          4.43328000	         -7.86371499	          0.79401258	          0.93359408	          0.01462549	        -12.61804129	         -5.18688375	          2.39084193	        -12.95332203	          9.82717553	         34.20350970	         31.55417489	          1.30937270	         -4.58907923	         -7.89081842	          4.35756964	          0.17883468	         -3.49008726	         -4.12740629	          3.04150529	          0.11127583	          0.01000019	          0.01000071	          0.02772910	          0.02918889	          0.02213366	          0.07230317	          0.02284682	          0.39145316	          0.01003974	          0.01760192	          0.21028488	          0.17691496	          0.01000006	          0.07866505	          0.08090010	          0.01455740	          0.11278787	          0.12946654	          0.05120986	          0.13724274	          0.10730174	          0.05117713	          0.01000062	          0.01000018	          0.01510681	          0.01000063	          0.36911768	
          0.72880113	         -6.56478004	          4.29267210	         -7.76315067	          0.81277984	          0.93288094	          0.01371977	        -12.08925441	         -5.10126429	          1.96847886	        -15.76272700	          8.73251620	         36.32275747	         31.17266916	          1.36133964	         -4.66279759	         -9.00954847	          3.72292654	          0.13610688	         -3.21386145	         -4.44248392	          3.17651101	          0.14276645	          0.01000020	          0.01000070	          0.02255899	          0.05394601	          0.01801587	          0.05882250	          0.01858702	          0.35986056	          0.01000162	          0.01432008	          0.17107700	          0.14392896	          0.01000007	          0.08174431	          0.06581626	          0.01184324	          0.14644283	          0.15298062	          0.04720440	          0.11165397	          0.12625663	          0.04163512	          0.01000090	          0.04010089	          0.01229052	          0.01000197	          0.40271886	
          0.74255209	         -6.59645957	          4.14667426	         -7.61975638	          0.83124313	          0.93292700	          0.01274940	        -11.18674685	         -5.00493924	          1.52694591	        -19.18254972	          7.43647617	         38.15417181	         30.75294959	          1.41924658	         -4.73813342	        -10.12054843	          3.31602573	          0.09969814	         -2.98490430	         -4.76102810	          3.27419468	          0.14841729	          0.01000027	          0.01000067	          0.01835285	          0.07085952	          0.01857951	          0.04785608	          0.01512146	          0.30958817	          0.01000048	          0.01165013	          0.13917948	          0.11709324	          0.01000019	          0.08047745	          0.05354480	          0.01000026	          0.15434679	          0.13365102	          0.04970181	          0.09083627	          0.12170197	          0.03387222	          0.01000066	          0.08800869	          0.01000119	          0.01000087	          0.41952305	
          0.75630306	         -6.60536084	          3.98314622	         -7.43635030	          0.84931986	          0.93373806	          0.01175167	         -9.92163928	         -4.89394154	          1.05851143	        -23.16277995	          5.99748187	         39.28931014	         30.25073887	          1.47274982	         -4.79239207	        -11.12540084	          3.08549412	          0.07123148	         -2.80714678	         -5.07087738	          3.33309638	          0.16201024	          0.01000029	          0.01000094	          0.01493095	          0.08069422	          0.01511575	          0.04665251	          0.01230206	          0.25306672	          0.01000034	          0.01000006	          0.11322929	          0.09526106	          0.01000014	          0.06666466	          0.04356138	          0.01000033	          0.15111770	          0.10873175	          0.04609312	          0.07390006	          0.11999186	          0.02755673	          0.01000065	          0.14145101	          0.01000393	          0.01000271	          0.41836877	
          0.77005402	         -6.59445036	          3.79209385	         -7.21377236	          0.86696624	          0.93534688	          0.01075536	         -8.32825293	         -4.76966778	          0.56342675	        -27.61252364	          4.45876859	         39.36297889	         29.60808669	          1.51889592	         -4.79329079	        -11.90773319	          3.00127163	          0.04857134	         -2.68137735	         -5.35996617	          3.35256821	          0.16957790	          0.01000025	          0.01000552	          0.01214707	          0.09260092	          0.01229764	          0.06977716	          0.01000834	          0.20588225	          0.01000027	          0.01000004	          0.09211755	          0.07749953	          0.01480379	          0.05423628	          0.03543937	          0.01000027	          0.14011959	          0.08845864	          0.04401535	          0.06012160	          0.11627192	          0.02241877	          0.01000064	          0.18020151	          0.01002502	          0.01001691	          0.40977556	
          0.78380499	         -6.56698908	          3.56041537	         -6.94959293	          0.88418144	          0.93771650	          0.00978414	         -6.46379431	         -4.62449350	          0.05800824	        -32.37481901	          2.77489609	         38.27993529	         28.78078491	          1.54707546	         -4.72893611	        -12.38305074	          3.03484399	          0.03576527	         -2.60483467	         -5.61209097	          3.33123856	          0.17314516	          0.01000021	          0.02976981	          0.01000003	          0.10697000	          0.01000498	          0.07645544	          0.01000003	          0.16749534	          0.01000029	          0.01000003	          0.07494212	          0.06304966	          0.05081735	          0.04412450	          0.02883171	          0.01000026	          0.12255117	          0.07196546	          0.04266146	          0.04891210	          0.10713916	          0.01823879	          0.01000066	          0.20132820	          0.01000088	          0.01000077	          0.39465306	
          0.79755595	         -6.52534106	          3.27274961	         -6.64161865	          0.90095701	          0.94068660	          0.00884666	         -4.40384784	         -4.44130939	         -0.44415860	        -37.30397919	          1.14897095	         35.73456172	         27.77535863	          1.53834241	         -4.59347596	        -12.55162067	          3.14175431	          0.03271161	         -2.57919411	         -5.80600355	          3.27303815	          0.17953567	          0.01000020	          0.06183757	          0.01000003	          0.10784376	          0.01000048	          0.07138063	          0.01000004	          0.13626572	          0.01000041	          0.01000003	          0.06096909	          0.05129399	          0.11186896	          0.03589761	          0.02345604	          0.01000027	          0.11321066	          0.05854744	          0.03937729	          0.03979260	          0.08889768	          0.01483819	          0.01000077	          0.19827278	          0.01000066	          0.01000080	          0.37497201	
          0.81130692	         -6.47031734	          2.92642416	         -6.29271843	          0.91728511	          0.94402987	          0.00793208	         -2.25289492	         -4.20839951	         -0.91926243	        -42.21700620	         -0.11889151	         31.65190339	         26.65502109	          1.48409644	         -4.36542473	        -12.51672246	          3.30627488	          0.03837139	         -2.60604584	         -5.93020736	          3.18973865	          0.19221900	          0.02233943	          0.09018491	          0.01000006	          0.08773635	          0.01000069	          0.05837888	          0.01000007	          0.11085903	          0.01000074	          0.01000003	          0.04960137	          0.04173019	          0.19965425	          0.02920455	          0.01908267	          0.01000029	          0.10850919	          0.04763122	          0.03377475	          0.03237345	          0.07232343	          0.01207166	          0.01000074	          0.17890627	          0.01000056	          0.01000064	          0.35333037	
          0.82505788	         -6.40164203	          2.53867120	         -5.91004011	          0.93319071	          0.94751922	          0.00703091	         -0.13723746	         -3.91028190	         -1.33910640	        -46.86222076	         -0.56627475	         26.69348165	         25.49477397	          1.39194337	         -4.04637406	        -12.40173238	          3.50919265	          0.05119146	         -2.68026997	         -5.99340916	          3.09292106	          0.19720707	          0.03553049	          0.09700157	          0.01000007	          0.07137795	          0.01000045	          0.08913259	          0.01000006	          0.10004369	          0.01000113	          0.01000003	          0.04421799	          0.03394959	          0.22040124	          0.02375944	          0.01552472	          0.01000027	          0.09846097	          0.03875035	          0.03107056	          0.02633762	          0.06350626	          0.01000022	          0.01000092	          0.16432990	          0.01000048	          0.01000060	          0.33081774	
